<svg height="440" viewBox="0 0 215 141" xmlns="http://www.w3.org/2000/svg"><rect x="25" y="23" height="100" width="180" stroke="rgb(0, 0, 0)" stroke-width="0" style="opacity:0.3" fill="rgb(255, 255, 255)"></rect><g data-name="frets-container"><line data-name="fret-1" x1="85" y1="20" x2="85" y2="126" stroke-width="3" stroke="#472611"></line><line data-name="fret-2" x1="145" y1="20" x2="145" y2="126" stroke-width="3" stroke="#472611"></line><line data-name="fret-3" x1="205" y1="20" x2="205" y2="126" stroke-width="3" stroke="#472611"></line><line data-name="fret-3" x1="205" y1="20" x2="205" y2="126" stroke-width="3" stroke="#472611"></line></g><g data-name="guitar-strings-container"><line x1="25" y1="23" x2="205" y2="23" stroke="black" style="opacity:0.3" stroke-width="1"></line><line x1="25" y1="43" x2="205" y2="43" stroke="black" style="opacity:0.3" stroke-width="1"></line><line x1="25" y1="63" x2="205" y2="63" stroke="black" style="opacity:0.3" stroke-width="1"></line><line x1="25" y1="83" x2="205" y2="83" stroke="black" style="opacity:0.3" stroke-width="1"></line><line x1="25" y1="103" x2="205" y2="103" stroke="black" style="opacity:0.3" stroke-width="1"></line><line x1="25" y1="123" x2="205" y2="123" stroke="black" style="opacity:0.3" stroke-width="1"></line></g><g data-name="guitar-neck-container"><circle cx="15" cy="23" r="5" stroke="rgb(0, 0, 0)" stroke-width="1" style="opacity:0.3" fill="rgb(255, 255, 255)"></circle><circle cx="15" cy="43" r="5" stroke="rgb(0, 0, 0)" stroke-width="1" style="opacity:0.3" fill="rgb(255, 255, 255)"></circle><circle cx="15" cy="63" r="5" stroke="rgb(0, 0, 0)" stroke-width="1" style="opacity:0.3" fill="rgb(255, 255, 255)"></circle><circle cx="15" cy="83" r="5" stroke="rgb(0, 0, 0)" stroke-width="1" style="opacity:0.3" fill="rgb(255, 255, 255)"></circle><circle cx="15" cy="103" r="5" stroke="rgb(0, 0, 0)" stroke-width="1" style="opacity:0.3" fill="rgb(255, 255, 255)"></circle><line x1="10" y1="118" x2="20" y2="128" stroke="rgb(0, 0, 0)" style="opacity:0.3" stroke-width="1"></line><line x1="20" y1="118" x2="10" y2="128" stroke="rgb(0, 0, 0)" style="opacity:0.3" stroke-width="1"></line></g><g data-name="barre-container"><circle cx="55" cy="23" r="5" stroke="rgb(0, 0, 0)" stroke-width="1" fill="rgb(0, 0, 0)"></circle><circle cx="55" cy="103" r="5" stroke="rgb(0, 0, 0)" stroke-width="1" fill="rgb(0, 0, 0)"></circle><rect x="50" y="23" height="80" width="10" stroke="rgb(0, 0, 0)" stroke-width="1" fill="rgb(0, 0, 0)"></rect></g><circle cx="115" cy="43" r="5" stroke="rgb(0, 0, 0)" stroke-width="1" fill="rgb(0, 0, 0)"></circle><text x="112" y="46" font-size="10" font-family="Arial" font-style="italic" fill="white">2</text><circle cx="175" cy="63" r="5" stroke="rgb(0, 0, 0)" stroke-width="1" fill="rgb(0, 0, 0)"></circle><text x="172" y="66" font-size="10" font-family="Arial" font-style="italic" fill="white">4</text><circle cx="175" cy="83" r="5" stroke="rgb(0, 0, 0)" stroke-width="1" fill="rgb(0, 0, 0)"></circle><text x="172" y="86" font-size="10" font-family="Arial" font-style="italic" fill="white">3</text><text x="14" y="138" font-size="12" font-family="Courier" font-style="italic" font-weight="bold" style="opacity:0.3" fill="rgb(0, 0, 0)">fr2</text><text x="115" y="13" font-family="Courier" fill="rgb(0, 0, 0)" text-anchor="middle">Bm</text></svg>